<svg width="14" height="16" viewBox="0 0 14 16" fill="none" xmlns="http://www.w3.org/2000/svg">
<path d="M10.8347 14.8155C9.99449 15.63 9.0771 15.5014 8.194 15.1155C7.25946 14.7211 6.40209 14.704 5.41611 15.1155C4.18149 15.6471 3.52988 15.4928 2.79254 14.8155C-1.39145 10.5029 -0.774143 3.93536 3.97572 3.69529C5.13317 3.75531 5.93911 4.32975 6.61643 4.38119C7.62814 4.17542 8.59697 3.58383 9.67726 3.661C10.9719 3.76388 11.9493 4.27831 12.5923 5.20427C9.91733 6.80757 10.5518 10.3314 13.0039 11.3174C12.5152 12.6034 11.8807 13.8809 10.8261 14.824L10.8347 14.8155ZM6.53069 3.64385C6.40209 1.7319 7.95394 0.154328 9.73728 0C9.98592 2.21203 7.73102 3.85819 6.53069 3.64385Z" fill="#D9D9D9"/>
</svg>
