<svg width="14" height="18" viewBox="0 0 14 18" fill="none" xmlns="http://www.w3.org/2000/svg">
<path d="M7.43309 0.57019C7.32623 0.57019 7.21679 0.57596 7.10375 0.584352C4.20855 0.818806 4.97667 3.94695 4.93351 4.99019C4.88008 5.7523 4.72799 6.356 4.2142 7.10237C3.60639 7.8372 2.75556 9.02573 2.35172 10.2625C2.16213 10.8442 2.07068 11.4432 2.15648 12.006C2.12417 12.0304 2.09765 12.062 2.0789 12.0983C1.90215 12.2871 1.77062 12.5195 1.62625 12.6857C1.4901 12.8247 1.29486 12.8719 1.08009 12.9648C0.866355 13.0597 0.627957 13.1531 0.48872 13.4426C0.427065 13.5742 0.394697 13.7159 0.39778 13.8638C0.39778 14.0001 0.41679 14.1423 0.435286 14.2377C0.475875 14.5162 0.515437 14.746 0.462003 14.9154C0.290911 15.3901 0.272415 15.7153 0.390073 15.9534C0.509785 16.1884 0.756404 16.2812 1.0318 16.3746C1.58874 16.5136 2.34042 16.4695 2.93487 16.7921C3.56837 17.1199 4.21369 17.262 4.72748 17.123C4.9047 17.0825 5.07085 17.0021 5.21385 16.8878C5.35684 16.7735 5.4731 16.6281 5.55417 16.4622C5.95544 16.4595 6.39678 16.2733 7.10119 16.2272C7.58004 16.1857 8.17963 16.4155 8.86708 16.3662C8.88558 16.4622 8.90972 16.5052 8.94723 16.6012V16.6038C9.2144 17.1472 9.70969 17.3932 10.2399 17.3522C10.7666 17.3087 11.3286 16.9783 11.7833 16.4375C12.217 15.9046 12.9368 15.6801 13.4131 15.3885C13.6515 15.2485 13.8442 15.0607 13.8575 14.79C13.8734 14.5115 13.7214 14.222 13.3704 13.8286V13.7599L13.3679 13.7573C13.2502 13.6183 13.1968 13.3833 13.1351 13.1106C13.076 12.8289 13.0118 12.5614 12.7981 12.3784C12.7549 12.3401 12.7123 12.3317 12.6671 12.2855C12.6291 12.2582 12.5845 12.2422 12.5381 12.2394C12.8325 11.3456 12.7174 10.4582 12.4174 9.65724C12.0536 8.67117 11.4139 7.81098 10.9294 7.22091C10.3833 6.5186 9.84842 5.85248 9.85921 4.86641C9.8777 3.36056 10.0221 0.577533 7.43207 0.571764L7.43309 0.57019ZM7.79429 2.95197H7.80508C7.94945 2.95197 8.07482 2.99602 8.20378 3.08886C8.33479 3.1838 8.43139 3.32122 8.50332 3.46283C8.57576 3.64326 8.61378 3.78226 8.61841 3.96793C8.61841 3.95482 8.62097 3.94066 8.62097 3.92755V4.00098C8.62097 3.99521 8.61841 3.99049 8.61841 3.98472L8.61584 3.96793C8.61584 4.13787 8.58141 4.30729 8.51462 4.46254C8.48288 4.55093 8.43255 4.63113 8.36716 4.69752C8.34867 4.68703 8.32966 4.67601 8.30808 4.66762C8.23615 4.63458 8.17192 4.62409 8.11284 4.57531C8.06422 4.55543 8.01403 4.53981 7.96281 4.52863C7.99518 4.48824 8.06197 4.43579 8.08869 4.38963C8.12363 4.30204 8.14212 4.20658 8.14777 4.1085V4.09434C8.14923 3.99965 8.13463 3.90543 8.10462 3.81583C8.07533 3.72299 8.03834 3.67578 7.98182 3.58347C7.92273 3.53679 7.86673 3.49063 7.79686 3.49063H7.78658C7.72236 3.49063 7.66584 3.50952 7.60727 3.58347C7.54298 3.64817 7.49518 3.72794 7.46803 3.81583C7.43071 3.90395 7.4098 3.9984 7.40638 4.09434V4.1085C7.40638 4.17092 7.41203 4.23386 7.41922 4.2968C7.28564 4.25064 7.11968 4.20081 7.00202 4.15466C6.99562 4.1086 6.99202 4.06218 6.99124 4.01566V4.0015C6.98603 3.81679 7.02095 3.63319 7.09348 3.46388C7.14948 3.31073 7.25121 3.17908 7.38788 3.09201C7.50502 3.00232 7.64683 2.95302 7.79429 2.95302V2.95197ZM5.76585 2.9934H5.79C5.88659 2.9934 5.97496 3.02645 6.06333 3.08624C6.16455 3.17645 6.24573 3.28817 6.29916 3.41091C6.36082 3.55095 6.39524 3.69257 6.40603 3.87824V3.88086C6.4086 3.9737 6.4086 4.02353 6.40346 4.06706V4.12423L6.34746 4.14049C6.24316 4.17878 6.16044 4.23333 6.07669 4.28054C6.08491 4.2176 6.08491 4.15466 6.07926 4.09434V4.08332C6.07155 3.99101 6.05254 3.94433 6.02326 3.85097C6.00133 3.77917 5.9617 3.71434 5.90817 3.66267C5.87452 3.63204 5.83039 3.61621 5.78537 3.61861H5.76893C5.72115 3.62123 5.68056 3.64589 5.64357 3.71145C5.59827 3.76463 5.56948 3.83035 5.56085 3.90027C5.54184 3.9737 5.53618 4.0529 5.5444 4.13263V4.14049C5.55263 4.23648 5.56855 4.28316 5.60041 4.37547C5.62108 4.44662 5.65991 4.51089 5.71293 4.56167C5.72115 4.57006 5.7268 4.57583 5.73708 4.57793C5.68929 4.61937 5.65692 4.62776 5.61736 4.67392C5.59013 4.69332 5.56136 4.71797 5.52642 4.72374C5.45517 4.63625 5.39236 4.54192 5.33889 4.44208C5.27334 4.29506 5.23701 4.13621 5.23202 3.97475C5.22165 3.81695 5.23976 3.65854 5.28545 3.50742C5.32604 3.37105 5.39027 3.24254 5.48069 3.13344C5.56907 3.04061 5.65744 2.99445 5.76688 2.99445L5.76585 2.9934ZM6.70505 4.18718C6.93266 4.18718 7.206 4.23071 7.53739 4.46569C7.73828 4.60573 7.89653 4.65451 8.26029 4.79088C8.43704 4.88686 8.53825 4.9797 8.58912 5.07254V4.9797C8.61352 5.03036 8.6271 5.08574 8.62896 5.14216C8.63082 5.19859 8.62092 5.25477 8.59991 5.30699C8.51411 5.52571 8.24642 5.75807 7.86981 5.89706V5.89968C7.68742 5.99252 7.52712 6.13204 7.33958 6.22488C7.15 6.31771 6.93523 6.42996 6.64648 6.41107C6.54192 6.41576 6.43744 6.39991 6.33872 6.36439C6.26262 6.32315 6.18932 6.27671 6.11933 6.2254C5.98575 6.13256 5.87066 5.99304 5.69957 5.90021V5.89758H5.697C5.4211 5.72555 5.27415 5.53935 5.22586 5.40035C5.18064 5.21206 5.22329 5.07306 5.35995 4.98023C5.51204 4.88739 5.6189 4.7914 5.68878 4.74525C5.76071 4.69332 5.78794 4.67392 5.80952 4.65503H5.81209V4.65241C5.92718 4.51027 6.10855 4.3246 6.38753 4.23123C6.48053 4.20658 6.58791 4.18718 6.70505 4.18718ZM8.62097 5.68359C8.86759 6.67543 9.44304 8.11519 9.81245 8.81173C10.0077 9.18571 10.3982 9.97246 10.5667 10.9265C10.6736 10.9239 10.7912 10.9396 10.9176 10.9727C11.3615 9.80357 10.5456 8.54686 10.1736 8.19701C10.021 8.05802 10.0133 7.96466 10.0878 7.96466C10.4922 8.33601 11.0214 9.0635 11.2141 9.89064C11.3024 10.2646 11.3245 10.6643 11.2305 11.0598C11.2757 11.0786 11.3214 11.1033 11.3697 11.1059C12.0762 11.4809 12.3382 11.7621 12.2124 12.1822V12.1523C12.1728 12.1502 12.1296 12.1523 12.0896 12.1523H12.0788C12.1836 11.825 11.9534 11.5733 11.3487 11.2947C10.7224 11.0162 10.2219 11.0598 10.1361 11.6199C10.1301 11.6516 10.1266 11.6837 10.1259 11.7159C10.0771 11.7322 10.0293 11.7511 9.98149 11.7594C9.68709 11.9483 9.52884 12.2294 9.43841 12.5903C9.35004 12.9642 9.32332 13.3985 9.29918 13.8989C9.28273 14.1339 9.18152 14.4858 9.07927 14.8435C8.0517 15.5946 6.62542 15.9198 5.41647 15.0785C5.33838 14.9421 5.24743 14.8163 5.14057 14.7045C5.08926 14.6177 5.02533 14.5394 4.95098 14.4722C5.07634 14.4722 5.18373 14.4507 5.26953 14.4255C5.36752 14.3773 5.44457 14.2938 5.48583 14.1911C5.55828 14.0049 5.48583 13.7043 5.24743 13.3765C5.01263 13.0518 4.61085 12.6826 4.02462 12.3144C3.59149 12.0359 3.34796 11.7054 3.23544 11.3388C3.12292 10.9648 3.13884 10.5793 3.22465 10.1891C3.39317 9.44061 3.82424 8.71155 4.10014 8.25471C4.17207 8.21118 4.12429 8.35069 3.8191 8.93814C3.54833 9.46264 3.03763 10.6837 3.73535 11.6315C3.76217 10.9393 3.91279 10.2579 4.17978 9.62104C4.56461 8.72781 5.37331 7.17108 5.43754 5.9364C5.46991 5.96367 5.58499 6.03238 5.63535 6.07854C5.7828 6.17138 5.89481 6.31089 6.0397 6.40373C6.18407 6.54273 6.36595 6.63871 6.63929 6.63871C6.66601 6.64133 6.69015 6.64133 6.71379 6.64133C6.99483 6.64133 7.21473 6.5485 7.3961 6.45513C7.59391 6.35915 7.75524 6.22016 7.90424 6.174H7.90681C8.22536 6.08116 8.47968 5.89234 8.62149 5.68464L8.62097 5.68359ZM10.1197 11.9483C10.1464 12.3684 10.3555 12.8195 10.7244 12.9118C11.1257 13.0046 11.7063 12.6794 11.9498 12.3768L12.0942 12.371C12.3105 12.3653 12.4903 12.3768 12.6743 12.5572L12.6768 12.5598C12.8186 12.6988 12.8859 12.9312 12.9445 13.1719C13.0036 13.4531 13.0488 13.718 13.2256 13.9173C13.5569 14.286 13.6669 14.5509 13.6618 14.715C13.651 14.8976 13.5328 14.9904 13.3191 15.1299C12.888 15.4116 12.123 15.6271 11.6359 16.2288C11.2125 16.7449 10.6967 17.026 10.241 17.0617C9.78625 17.1 9.39269 16.9227 9.16251 16.4338L9.15994 16.4312C9.01556 16.1522 9.07722 15.7153 9.19745 15.2506C9.31819 14.7832 9.49185 14.3085 9.516 13.923C9.54014 13.4232 9.56686 12.9889 9.64701 12.6522C9.72973 12.327 9.85869 12.0946 10.0889 11.9666L10.1182 11.9498L10.1197 11.9483ZM2.70983 11.9834H2.71805C2.75556 11.9834 2.7905 11.986 2.82492 11.9944C3.08181 12.0327 3.30942 12.2268 3.52624 12.5189L4.14947 13.6828L4.15204 13.6854C4.31799 14.0568 4.66839 14.4281 4.96536 14.8304C5.26285 15.2479 5.49303 15.6219 5.46631 15.9282V15.934C5.42572 16.4527 5.13697 16.7339 4.69563 16.8382C4.25377 16.9311 3.65417 16.8382 3.0551 16.513C2.3918 16.1391 1.6021 16.1852 1.09653 16.0919C0.84529 16.0457 0.679336 15.9497 0.60124 15.8107C0.526741 15.6717 0.523658 15.3895 0.687043 14.95V14.9479C0.767194 14.7129 0.709136 14.4208 0.668546 14.1638C0.63104 13.8847 0.612543 13.6686 0.697832 13.5076C0.807269 13.2726 0.970654 13.2291 1.17103 13.1337C1.37192 13.0408 1.61032 12.9947 1.79734 12.8058H1.79991V12.8032C1.97408 12.6181 2.10561 12.3857 2.2577 12.2184C2.38666 12.0763 2.51716 11.9834 2.70983 11.9834ZM7.61549 5.63743C7.31801 5.77642 6.9676 6.0114 6.59562 6.0114C6.22363 6.0114 5.9318 5.82625 5.72063 5.68621C5.61377 5.59127 5.52796 5.49791 5.46374 5.45123C5.35122 5.35892 5.36458 5.21678 5.41287 5.21678C5.48737 5.22727 5.50125 5.31171 5.54903 5.35892C5.61634 5.40507 5.69649 5.49791 5.79513 5.59127C5.99603 5.73027 6.26371 5.91857 6.5951 5.91857C6.92753 5.91857 7.318 5.73027 7.55332 5.59127C7.68691 5.49844 7.858 5.35892 7.99723 5.26608C8.1041 5.1701 8.09948 5.07726 8.18682 5.07726C8.27519 5.08827 8.21148 5.1701 8.08818 5.30962C7.9623 5.4056 7.77014 5.54459 7.61549 5.63743ZM6.87409 4.52863V4.51551C6.87152 4.50135 6.8818 4.48562 6.89516 4.47985C6.94294 4.44995 7.01795 4.46044 7.0719 4.48247C7.11454 4.48247 7.18134 4.52863 7.1762 4.57741C7.17055 4.61045 7.11711 4.62409 7.08218 4.62409C7.04518 4.62409 7.01795 4.59419 6.9861 4.57531C6.95116 4.56429 6.88437 4.56954 6.87409 4.52863ZM6.49646 4.52863C6.48258 4.57006 6.41836 4.56429 6.38394 4.57531C6.35157 4.59419 6.32485 4.62409 6.28734 4.62409C6.25241 4.62409 6.1964 4.60993 6.19332 4.57531C6.1887 4.52863 6.25241 4.48247 6.29556 4.48247C6.35157 4.45992 6.42093 4.44943 6.47436 4.47985C6.48515 4.48562 6.49903 4.50135 6.49337 4.51551V4.52863H6.49646Z" fill="#D9D9D9"/>
</svg>
