<svg width="28" height="28" viewBox="0 0 28 28" fill="none" xmlns="http://www.w3.org/2000/svg">
<path d="M6.01435 12.4938C4.37005 12.4938 2.96673 11.9126 1.80438 10.7503C0.642027 9.58792 0.0608521 8.18459 0.0608521 6.54029C0.0608521 4.89599 0.642027 3.49267 1.80438 2.33032C2.96673 1.16797 4.37005 0.586792 6.01435 0.586792C7.65865 0.586792 9.06198 1.16797 10.2243 2.33032C11.3867 3.49267 11.9679 4.89599 11.9679 6.54029C11.9679 8.18459 11.3867 9.58792 10.2243 10.7503C9.06198 11.9126 7.65865 12.4938 6.01435 12.4938ZM6.01435 9.09179C6.7231 9.09179 7.32582 8.84345 7.82251 8.34675C8.31921 7.85006 8.56699 7.24791 8.56585 6.54029C8.56585 5.83154 8.31751 5.22882 7.82081 4.73213C7.32412 4.23544 6.72197 3.98766 6.01435 3.98879C5.3056 3.98879 4.70288 4.23714 4.20619 4.73383C3.7095 5.23052 3.46172 5.83268 3.46285 6.54029C3.46285 7.24904 3.7112 7.85176 4.20789 8.34845C4.70458 8.84515 5.30674 9.09293 6.01435 9.09179ZM21.3234 27.8028C19.6791 27.8028 18.2757 27.2216 17.1134 26.0593C15.951 24.8969 15.3699 23.4936 15.3699 21.8493C15.3699 20.205 15.951 18.8017 17.1134 17.6393C18.2757 16.477 19.6791 15.8958 21.3234 15.8958C22.9677 15.8958 24.371 16.477 25.5333 17.6393C26.6957 18.8017 27.2769 20.205 27.2769 21.8493C27.2769 23.4936 26.6957 24.8969 25.5333 26.0593C24.371 27.2216 22.9677 27.8028 21.3234 27.8028ZM21.3234 24.4008C22.0321 24.4008 22.6348 24.1524 23.1315 23.6558C23.6282 23.1591 23.876 22.5569 23.8749 21.8493C23.8749 21.1405 23.6265 20.5378 23.1298 20.0411C22.6331 19.5444 22.031 19.2967 21.3234 19.2978C20.6146 19.2978 20.0119 19.5461 19.5152 20.0428C19.0185 20.5395 18.7707 21.1417 18.7719 21.8493C18.7719 22.558 19.0202 23.1608 19.5169 23.6575C20.0136 24.1541 20.6157 24.4019 21.3234 24.4008ZM2.44225 27.8028L0.0608521 25.4214L24.8955 0.586792L27.2769 2.96819L2.44225 27.8028Z" fill="#6F90C2"/>
</svg>
