<svg width="39" height="46" viewBox="0 0 39 46" fill="none" xmlns="http://www.w3.org/2000/svg">
<path d="M31.3247 23.666L15.3261 7.65559C15.116 7.44005 14.8651 7.26859 14.5879 7.15126C14.3108 7.03393 14.013 6.97308 13.7121 6.97229H2.85C2.24696 6.97229 1.66863 7.21184 1.24222 7.63825C0.815817 8.06466 0.576263 8.64299 0.576263 9.24602V20.1081C0.577079 20.4062 0.636827 20.7013 0.752071 20.9762C0.867315 21.2512 1.03578 21.5007 1.24778 21.7103L17.2582 37.7207C17.4693 37.9319 17.72 38.0995 17.9959 38.2138C18.2719 38.3282 18.5676 38.387 18.8663 38.387C19.1649 38.387 19.4607 38.3282 19.7366 38.2138C20.0125 38.0995 20.2632 37.9319 20.4744 37.7207L31.3247 26.8704C31.7477 26.4444 31.9851 25.8685 31.9851 25.2682C31.9851 24.6679 31.7477 24.0919 31.3247 23.666ZM18.9311 36.0596L2.94424 20.1081V9.32849H13.665L29.6636 25.2093L18.9311 36.0596Z" fill="#6F90C2"/>
<path d="M37.6628 23.6189L21.6642 7.62031C21.4512 7.41115 21.199 7.24622 20.922 7.13501C20.645 7.0238 20.3487 6.96852 20.0502 6.97235H17.588L36.0017 25.174L23.5963 37.6854C23.8074 37.8967 24.0581 38.0642 24.3341 38.1785C24.61 38.2929 24.9057 38.3517 25.2044 38.3517C25.5031 38.3517 25.7988 38.2929 26.0747 38.1785C26.3507 38.0642 26.6014 37.8967 26.8125 37.6854L37.6628 26.8351C37.874 26.624 38.0416 26.3733 38.1559 26.0974C38.2703 25.8214 38.3291 25.5257 38.3291 25.227C38.3291 24.9283 38.2703 24.6326 38.1559 24.3567C38.0416 24.0808 37.874 23.8301 37.6628 23.6189Z" fill="#6F90C2"/>
<path d="M7.79795 15.7727C8.66331 15.7727 9.36483 15.0711 9.36483 14.2058C9.36483 13.3404 8.66331 12.6389 7.79795 12.6389C6.93259 12.6389 6.23108 13.3404 6.23108 14.2058C6.23108 15.0711 6.93259 15.7727 7.79795 15.7727Z" fill="#6F90C2"/>
</svg>
