<svg width="63" height="18" viewBox="0 0 63 18" fill="none" xmlns="http://www.w3.org/2000/svg">
<g clip-path="url(#clip0_26_141)">
<path d="M0.00237248 0.000488281L63 0.050717V18.0005C63 18.0005 20.9976 18.0005 0 18.0005C0 12.0495 0.00237248 0.000488281 0.00237248 0.000488281ZM1.81613 1.92952V16.1659C1.81613 16.1659 41.3938 16.1659 61.1839 16.1659C61.1839 11.418 61.1839 6.67497 61.1839 1.92952C41.3938 1.92952 1.81613 1.92952 1.81613 1.92952Z" fill="white" fill-opacity="0.75"/>
<path d="M5.49704 3.75879H7.56821L9.58482 11.7428L11.5504 3.75879H13.7212L10.5409 14.338H8.62397L5.49704 3.75879Z" fill="white" fill-opacity="0.75"/>
<path d="M19.7722 3.75879H22.5979L25.5729 14.338H23.4555L22.7485 11.6938H19.6216C19.6216 11.6938 19.0795 13.8202 18.9644 14.2866C18.3357 14.3369 16.7971 14.2866 16.7971 14.2866L19.7722 3.75879ZM21.134 5.54073L20.0237 10.0135H22.344L21.134 5.54073Z" fill="white" fill-opacity="0.75"/>
<path d="M30.7189 3.75879C31.3867 3.75879 32.0652 3.75879 32.7378 3.75879C32.7378 6.69121 32.7378 9.62722 32.7378 12.5561C34.1957 12.5561 35.6619 12.5561 37.1222 12.5561C37.1222 13.1553 37.1222 13.7353 37.1222 14.3368C34.9703 14.3368 32.8185 14.3368 30.6679 14.3368C30.6679 10.8375 30.5801 7.16839 30.7189 3.75879Z" fill="white" fill-opacity="0.75"/>
<path d="M39.6453 3.75879H41.7651L43.7806 11.6424L45.7485 3.75879H47.8672L44.688 14.338H42.8209L39.6453 3.75879Z" fill="white" fill-opacity="0.75"/>
<path d="M52.2539 3.75879C52.2539 3.75879 55.1459 3.75879 56.5931 3.75879C56.5931 4.21324 56.5931 5.13291 56.5931 5.13291H53.7663C53.7663 5.13291 53.7663 6.14706 53.7663 6.65653C54.624 6.65653 55.4816 6.65653 56.3405 6.65653C56.3405 7.10979 56.3405 7.5774 56.3405 8.03065C55.4816 8.03065 54.624 8.03065 53.7663 8.03065C53.7663 8.55328 53.7663 9.07948 53.7663 9.6045C54.7094 9.6045 56.5931 9.6045 56.5931 9.6045V10.9798H52.2052L52.2539 3.75879Z" fill="white" fill-opacity="0.75"/>
</g>
<defs>
<clipPath id="clip0_26_141">
<rect width="63" height="18" fill="white"/>
</clipPath>
</defs>
</svg>
